#define _0_width 10
#define _0_height 19
static unsigned char _0_bits[] = {
  0xFE, 0x01, 0x01, 0x02, 0x01, 0x02, 0x01, 0x02, 0x01, 0x02, 0x01, 0x02, 
  0x01, 0x02, 0x01, 0x02, 0x01, 0x02, 0x00, 0x00, 0x01, 0x02, 0x01, 0x02, 
  0x01, 0x02, 0x01, 0x02, 0x01, 0x02, 0x01, 0x02, 0x01, 0x02, 0x01, 0x02, 
  0xFF, 0x01, };
