#define _3_width 10
#define _3_height 19
static unsigned char _3_bits[] = {
  0xFE, 0x03, 0x00, 0x02, 0x00, 0x02, 0x00, 0x02, 0x00, 0x02, 0x00, 0x02, 
  0x00, 0x02, 0x00, 0x02, 0x00, 0x02, 0xFE, 0x03, 0x00, 0x02, 0x00, 0x02, 
  0x00, 0x02, 0x00, 0x02, 0x00, 0x02, 0x00, 0x02, 0x00, 0x02, 0x00, 0x02, 
  0xFE, 0x03, };
