#define _4_width 10
#define _4_height 19
static unsigned char _4_bits[] = {
  0x00, 0x00, 0x01, 0x02, 0x01, 0x02, 0x01, 0x02, 0x01, 0x02, 0x01, 0x02, 
  0x01, 0x02, 0x01, 0x02, 0x01, 0x02, 0xFE, 0x03, 0x00, 0x02, 0x00, 0x02, 
  0x00, 0x02, 0x00, 0x02, 0x00, 0x02, 0x00, 0x02, 0x00, 0x02, 0x00, 0x02, 
  0x00, 0x00, };
