#define _5_width 10
#define _5_height 19
static unsigned char _5_bits[] = {
  0xFE, 0x01, 0x01, 0x00, 0x01, 0x00, 0x01, 0x00, 0x01, 0x00, 0x01, 0x00, 
  0x01, 0x00, 0x01, 0x00, 0x01, 0x00, 0xFE, 0x01, 0x00, 0x02, 0x00, 0x02, 
  0x00, 0x02, 0x00, 0x02, 0x00, 0x02, 0x00, 0x02, 0x00, 0x02, 0x00, 0x02, 
  0xFE, 0x03, };
