#define _6_width 10
#define _6_height 19
static unsigned char _6_bits[] = {
  0xFE, 0x01, 0x01, 0x00, 0x01, 0x00, 0x01, 0x00, 0x01, 0x00, 0x01, 0x00, 
  0x01, 0x00, 0x01, 0x00, 0x01, 0x00, 0xFF, 0x01, 0x01, 0x02, 0x01, 0x02, 
  0x01, 0x02, 0x01, 0x02, 0x01, 0x02, 0x01, 0x02, 0x01, 0x02, 0x01, 0x02, 
  0xFF, 0x03, };
