#define _8_width 10
#define _8_height 19
static unsigned char _8_bits[] = {
  0xFE, 0x03, 0x01, 0x02, 0x01, 0x02, 0x01, 0x02, 0x01, 0x02, 0x01, 0x02, 
  0x01, 0x02, 0x01, 0x02, 0x01, 0x02, 0xFF, 0x03, 0x01, 0x02, 0x01, 0x02, 
  0x01, 0x02, 0x01, 0x02, 0x01, 0x02, 0x01, 0x02, 0x01, 0x02, 0x01, 0x02, 
  0xFF, 0x03, };
