#define colon_width 2
#define colon_height 20
static unsigned char colon_bits[] = {
  0x00, 0x00, 0x00, 0x00, 0x00, 0x03, 0x03, 0x00, 0x00, 0x00, 0x00, 0x00, 
  0x02, 0x03, 0x01, 0x00, 0x00, 0x00, 0x00, 0x00, };
